# xmcd
#
# Track frame offsets: 
#        150
#        23855
#        47142
#        66845
#        88292
#        112097
#        145037
#        174725
#        194950
#        215225
#        249222
#
# Disc length: 3773 seconds
#
# Revision: 1
# Processed by: cddbd v1.5.2PL0 Copyright (c) Steve Scherf et al.
# Submitted via: ExactAudioCopy v1.0b3
#
DISCID=ae0ebb0b
DTITLE=Ramsey Lewis - The Very Best of Ramsey Lewis
DYEAR=2006
DGENRE=Jazz
TTITLE0=Julia
TTITLE1=Les Fleurs
TTITLE2=Sky Islands
TTITLE3=Jackson Park
TTITLE4=A Night in Bahia
TTITLE5=Who Are You?
TTITLE6=Baile del Alma (Dance of the Soul)
TTITLE7=Sarah Jane
TTITLE8=Love's Serenade
TTITLE9=Cante Hondo (Deep Song)
TTITLE10=Sun Goddess 2000
EXTD=YEAR: 2006
EXTT0=
EXTT1=
EXTT2=
EXTT3=
EXTT4=
EXTT5=
EXTT6=
EXTT7=
EXTT8=
EXTT9=
EXTT10=
PLAYORDER=
